<mxfile host="app.diagrams.net" modified="2024-06-15T02:38:40.800Z" agent="Mozilla/5.0 (X11; Ubuntu; Linux x86_64; rv:124.0) Gecko/20100101 Firefox/124.0" etag="4QnpaG3YuhWO6ctMe3tH" version="24.5.4" type="github">
  <diagram name="第 1 页" id="JIrzwXanYV_WQnhEP1rk">
    <mxGraphModel dx="1362" dy="795" grid="1" gridSize="10" guides="1" tooltips="1" connect="1" arrows="1" fold="1" page="1" pageScale="1" pageWidth="827" pageHeight="1169" math="0" shadow="0">
      <root>
        <mxCell id="0" />
        <mxCell id="1" parent="0" />
        <mxCell id="IU4ov_gBoKseZuZtgst5-1" value="" style="rounded=0;whiteSpace=wrap;html=1;" vertex="1" parent="1">
          <mxGeometry x="200" y="110" width="120" height="60" as="geometry" />
        </mxCell>
      </root>
    </mxGraphModel>
  </diagram>
</mxfile>
